<?xml version="1.0" encoding="iso-8859-1"?>
<!-- Generator: Adobe Illustrator 19.0.0, SVG Export Plug-In . SVG Version: 6.00 Build 0)  -->
<svg version="1.1" id="Layer_1" xmlns="http://www.w3.org/2000/svg" xmlns:xlink="http://www.w3.org/1999/xlink" x="0px" y="0px"
	 viewBox="0 0 512 512" style="enable-background:new 0 0 512 512;" xml:space="preserve">
<g>
	<g>
		<polygon points="389.251,293.493 389.251,485.482 421.073,485.482 421.073,512 452.894,512 452.894,485.482 484.716,485.482 
			484.716,293.493 		"/>
	</g>
</g>
<g>
	<g>
		<polygon points="379.967,171.51 387.807,261.671 486.159,261.671 493.999,171.51 		"/>
	</g>
</g>
<g>
	<g>
		<path d="M448.923,13.554L436.984,0l-11.939,13.554c-2.198,2.496-49.081,56.781-36.825,126.135h97.529
			C498.003,70.335,451.121,16.049,448.923,13.554z"/>
	</g>
</g>
<g>
	<g>
		<path d="M18.001,13.464v487.929h328.822V13.464H18.001z M283.18,172.571H81.644V77.107H283.18V172.571z"/>
	</g>
</g>
<g>
	<g>
		<rect x="113.464" y="108.925" width="137.893" height="31.821"/>
	</g>
</g>
<g>
</g>
<g>
</g>
<g>
</g>
<g>
</g>
<g>
</g>
<g>
</g>
<g>
</g>
<g>
</g>
<g>
</g>
<g>
</g>
<g>
</g>
<g>
</g>
<g>
</g>
<g>
</g>
<g>
</g>
</svg>
