<?xml version="1.0" encoding="UTF-8" standalone="no"?>
<!-- Uploaded to SVGRepo https://www.svgrepo.com -->

<svg
   version="1.1"
   id="Layer_1"
   x="0px"
   y="0px"
   width="98"
   height="112"
   viewBox="0 0 98 112"
   enable-background="new 0 0 120 120"
   xml:space="preserve"
   sodipodi:docname="fire-svgrepo-com-resized.svg"
   inkscape:version="1.1.1 (3bf5ae0d25, 2021-09-20)"
   xmlns:inkscape="http://www.inkscape.org/namespaces/inkscape"
   xmlns:sodipodi="http://sodipodi.sourceforge.net/DTD/sodipodi-0.dtd"
   xmlns="http://www.w3.org/2000/svg"
   xmlns:svg="http://www.w3.org/2000/svg"><defs
   id="defs11" /><sodipodi:namedview
   id="namedview9"
   pagecolor="#ffffff"
   bordercolor="#666666"
   borderopacity="1.0"
   inkscape:pageshadow="2"
   inkscape:pageopacity="0.0"
   inkscape:pagecheckerboard="0"
   showgrid="false"
   inkscape:zoom="4.902607"
   inkscape:cx="50.483345"
   inkscape:cy="72.308467"
   inkscape:window-width="1920"
   inkscape:window-height="1017"
   inkscape:window-x="-8"
   inkscape:window-y="-8"
   inkscape:window-maximized="1"
   inkscape:current-layer="Layer_1" />
<path
   fill="#010101"
   d="m 97.585317,74.479807 c 0,20.512 -16.631,37.140993 -37.143,37.142993 -20.514,-0.002 -37.143,-16.630993 -37.143,-37.142993 0,-9.746 2.203,-23.92 15.156,-36.873 23.698,-23.697 24.809,-37.3000003 24.809,-37.3000003 28.477,28.4770003 34.321,53.6580003 34.321,74.1730003 z"
   id="path2" />
<path
   fill="#010101"
   d="m 19.838317,22.380807 c 0,0 3.461,22.667 23.558,35.616 11.158,7.19 34.276,27.322 34.276,34.384 0,14.860993 -35.343,19.239993 -50.205,19.239993 -14.861,0 -26.90999939,-12.046993 -26.90999939,-26.907993 0,-14.863 -1.34899999,-41.701 19.28099939,-62.332 z"
   id="path4" />
<path
   fill="#ffffff"
   d="m 50.924317,43.057807 c 0,0 0.602,7.371 13.443,20.212 7.018,7.018 8.211,14.697 8.211,19.979 0,11.114 -9.01,20.124993 -20.125,20.124993 -11.115,0 -20.126,-9.010993 -20.125,-20.124993 0,-11.115 3.166,-24.76 18.596,-40.191 z"
   id="path6" />
</svg>
