<?xml version="1.0" encoding="UTF-8" standalone="no"?>
<svg
   height="460"
   width="2510"
   overflow="hidden"
   version="1.1"
   id="svg22"
   sodipodi:docname="logo_text_white.svg"
   inkscape:version="1.1.2 (0a00cf5339, 2022-02-04, custom)"
   xmlns:inkscape="http://www.inkscape.org/namespaces/inkscape"
   xmlns:sodipodi="http://sodipodi.sourceforge.net/DTD/sodipodi-0.dtd"
   xmlns="http://www.w3.org/2000/svg"
   xmlns:svg="http://www.w3.org/2000/svg">
  <defs
     id="defs26" />
  <sodipodi:namedview
     id="namedview24"
     pagecolor="#ffffff"
     bordercolor="#666666"
     borderopacity="1.0"
     inkscape:pageshadow="2"
     inkscape:pageopacity="0.0"
     inkscape:pagecheckerboard="0"
     showgrid="false"
     width="501px"
     inkscape:zoom="0.43967391"
     inkscape:cx="1938.937"
     inkscape:cy="134.19036"
     inkscape:window-width="1920"
     inkscape:window-height="1017"
     inkscape:window-x="-8"
     inkscape:window-y="-8"
     inkscape:window-maximized="1"
     inkscape:current-layer="svg22" />
  <clipPath
     id="a">
    <path
       d="M 0,0 H 720 V 720 H 0 Z"
       id="path9" />
  </clipPath>
  <g
     clip-path="url(#a)"
     transform="translate(-120.28846,-129.80769)"
     id="g20">
    <path
       d="M 0,0 H 720 V 720 H 0 Z"
       fill="none"
       id="path12" />
    <g
       fill="#ff0000"
       font-family="Consolas, Consolas_MSFontService, sans-serif"
       font-weight="700"
       id="g18">
      <g
         aria-label="{"
         transform="rotate(-90,444.224,-69.224)"
         id="text14"
         style="font-size:551px">
        <path
           d="m 221.96045,106.81006 q -55.6919,0 -83.13428,-26.904298 Q 111.38379,53.270508 111.38379,-4.8427734 V -73.179687 q 0,-27.711423 -12.375978,-41.701663 -12.375976,-13.99023 -41.163574,-13.99023 H 40.894531 v -50.84912 h 16.949707 q 14.528321,0 24.751953,-2.95948 10.223633,-3.22851 16.680664,-9.68554 6.457035,-6.45703 9.147465,-16.41162 2.95947,-10.22364 2.95947,-24.21387 v -47.35156 q 0,-27.71143 6.18799,-48.69678 6.45703,-20.98535 19.90918,-34.97559 13.45215,-13.99023 34.16845,-20.98535 20.98536,-7.26416 50.31104,-7.26416 h 22.59961 v 50.58008 h -16.94971 q -12.91406,0 -23.40674,3.22852 -10.22363,2.95947 -17.75683,9.95459 -7.53321,6.99511 -11.56885,18.56396 -4.03564,11.2998 -4.03564,28.24951 v 47.08252 q 0,20.17822 -3.49756,34.4375 -3.22852,14.25928 -10.22364,23.94483 -6.99511,9.4165 -17.75683,14.79736 -10.76172,5.11182 -25.29004,7.26416 28.7876,3.22851 42.77783,22.59961 13.99024,19.10205 13.99024,58.920408 v 68.3369145 q 0,17.4877925 4.03564,29.0566405 4.03564,11.568848 11.56885,18.563965 7.5332,6.995117 17.75683,9.95459 10.49268,2.959472 23.40674,2.959472 h 16.94971 v 50.58008 z"
           id="path37" />
      </g>
      <g
         aria-label="\/"
         transform="translate(185.958,554)"
         id="text16"
         style="font-size:319px">
        <path
           d="M 55.451172,-220.09131 164.32861,33.48877 H 127.25732 L 18.535645,-220.09131 Z"
           id="path40" />
        <path
           d="m 223.51807,33.48877 h -36.91553 l 108.72168,-253.58008 h 37.07129 z"
           id="path42" />
      </g>
    </g>
  </g>
  <g
     aria-label="BITSADMIN"
     id="text4190"
     style="font-weight:bold;font-size:400px;line-height:1.25;font-family:Consolas, Consolas_MSFontService, sans-serif;-inkscape-font-specification:'Consolas, Consolas_MSFontService, sans-serif, Bold';fill:#ff0000">
    <path
       d="M 575.60327,345.71075 V 90.437317 h 82.42188 q 43.55468,0 65.23437,15.234373 21.875,15.23438 21.875,46.09375 0,9.57031 -2.34375,18.75 -2.14844,8.98438 -6.83594,16.60156 -4.6875,7.61719 -11.71875,13.47657 -7.03125,5.85937 -16.60156,9.17968 9.57031,1.5625 18.16406,6.25 8.78907,4.49219 15.23438,11.91407 6.64062,7.22656 10.35156,17.1875 3.90625,9.96093 3.90625,22.26562 0,39.0625 -26.17187,58.78906 -26.17188,19.53125 -75.58594,19.53125 z M 695.13452,160.16388 q 0,-7.22656 -2.34375,-13.08594 -2.34375,-5.85937 -7.61719,-9.96094 -5.07812,-4.10156 -13.28125,-6.25 -8.00781,-2.34375 -19.53125,-2.34375 h -29.10156 v 67.57813 h 29.10156 q 11.71875,0 19.72657,-2.73438 8.20312,-2.92968 13.28125,-7.8125 5.27343,-5.07812 7.42187,-11.52343 2.34375,-6.44532 2.34375,-13.86719 z m -38.28125,146.28906 q 11.52344,0 20.11719,-2.92969 8.78906,-2.92968 14.64844,-8.00781 5.85937,-5.27344 8.78906,-12.30469 3.125,-7.03125 3.125,-15.03906 0,-16.60156 -12.5,-25.97656 -12.30469,-9.375 -37.89063,-9.375 h -29.88281 v 73.63281 z"
       style="fill:#ffffff"
       id="path18" />
    <path
       d="M 799.62671,129.69513 V 90.437317 h 161.32812 v 39.257813 h -56.25 v 176.36719 h 56.25 v 39.64843 H 799.62671 v -39.64843 h 56.25 V 129.69513 Z"
       style="fill:#ffffff"
       id="path20" />
    <path
       d="m 1124.822,130.47638 v 215.23437 h -49.2187 V 130.47638 h -69.9219 V 90.437317 h 189.0625 v 40.039063 z"
       style="fill:#ffffff"
       id="path22" />
    <path
       d="m 1409.3923,268.56232 q 0,20.89843 -7.8125,36.32812 -7.6172,15.42969 -21.4843,25.58594 -13.8672,9.96094 -33.0079,14.84375 -19.1406,4.88281 -41.7968,4.88281 -20.1172,0 -38.8672,-2.34375 -18.75,-2.34375 -37.1094,-7.8125 v -47.46094 q 8.9844,3.125 18.75,5.85938 9.7656,2.73437 19.5313,4.88281 9.9609,1.95313 19.7265,3.125 9.7656,1.17188 18.9453,1.17188 13.6719,0 23.2422,-2.34375 9.5703,-2.34375 15.625,-6.44532 6.0547,-4.10156 8.7891,-9.76562 2.7344,-5.66406 2.7344,-12.5 0,-9.375 -5.4688,-15.625 -5.2734,-6.44531 -14.0625,-11.32813 -8.7891,-4.88281 -20.1172,-8.78906 -11.1328,-3.90625 -22.8515,-8.39844 -11.5235,-4.49218 -22.8516,-10.15625 -11.1328,-5.66406 -19.9219,-14.0625 -8.789,-8.39843 -14.2578,-19.92187 -5.2734,-11.71875 -5.2734,-28.125 0,-15.03906 5.4687,-28.51563 5.4688,-13.47656 17.1875,-23.4375 11.7188,-10.156246 30.0781,-16.015621 18.3594,-6.054687 44.336,-6.054687 7.6172,0 15.8203,0.78125 8.3984,0.585937 16.4062,1.757812 8.2032,0.976563 15.625,2.539063 7.6172,1.367187 13.8672,2.929687 v 43.945316 q -6.25,-2.34375 -13.6718,-4.29688 -7.4219,-1.95312 -15.4297,-3.32031 -7.8125,-1.5625 -15.8203,-2.34375 -8.0079,-0.78125 -15.2344,-0.78125 -12.6953,0 -21.4844,2.14844 -8.7891,1.95312 -14.4531,5.66406 -5.6641,3.51562 -8.2031,8.78906 -2.5391,5.27344 -2.5391,11.71875 0,8.00781 5.2734,13.86719 5.4688,5.66406 14.2578,10.35156 8.9844,4.49219 20.1172,8.59375 11.3282,3.90625 23.0469,8.59375 11.9141,4.49219 23.0469,10.35156 11.3281,5.85938 20.1172,14.25782 8.9843,8.39843 14.2578,19.92187 5.4687,11.32813 5.4687,26.95313 z"
       style="fill:#ffffff"
       id="path24" />
    <path
       d="m 1648.0642,345.71075 h -37.8906 l -17.7735,-55.66406 h -106.25 l -17.9687,55.66406 h -36.1328 l 84.7656,-255.273433 h 47.6563 z m -65.625,-86.71875 -43.1641,-136.52343 -43.164,136.52343 z"
       style="font-weight:normal;-inkscape-font-specification:'Consolas, Consolas_MSFontService, sans-serif, Normal';fill:#ffffff"
       id="path26" />
    <path
       d="m 1855.6814,215.242 q 0,18.35938 -2.9297,35.15625 -2.7344,16.79688 -8.9844,31.25 -6.25,14.45313 -16.2109,26.36719 -9.9609,11.71875 -24.4141,20.11719 -14.4531,8.39844 -33.5937,13.08594 -19.1406,4.49218 -43.5547,4.49218 h -54.6875 V 90.437317 h 65.8203 q 59.7656,0 89.0625,30.859373 29.4922,30.66406 29.4922,93.94531 z m -36.5234,2.53907 q 0,-27.14844 -5.0782,-45.89844 -5.0781,-18.75 -15.4297,-30.27344 -10.3515,-11.52344 -25.9765,-16.60156 -15.625,-5.27344 -36.7188,-5.27344 h -29.8828 v 195.89844 h 25.9766 q 87.1094,0 87.1094,-97.85156 z"
       style="font-weight:normal;-inkscape-font-specification:'Consolas, Consolas_MSFontService, sans-serif, Normal';fill:#ffffff"
       id="path28" />
    <path
       d="m 2080.2908,345.71075 h -33.9844 l -5.0781,-159.17968 -2.1485,-61.13282 -11.914,35.54688 -37.6953,101.5625 h -24.0235 l -35.9375,-97.65625 -11.914,-39.45313 -0.7813,63.86719 -4.4922,156.44531 h -32.8125 l 12.5,-255.273433 h 41.211 l 34.375,96.093753 11.1328,32.42187 10.7422,-32.42187 36.1328,-96.093753 h 42.3828 z"
       style="font-weight:normal;-inkscape-font-specification:'Consolas, Consolas_MSFontService, sans-serif, Normal';fill:#ffffff"
       id="path30" />
    <path
       d="m 2182.2439,119.73419 h -58.7891 V 90.437317 h 152.7344 v 29.296873 h -58.7891 v 196.28906 h 58.7891 v 29.6875 h -152.7344 v -29.6875 h 58.7891 z"
       style="font-weight:normal;-inkscape-font-specification:'Consolas, Consolas_MSFontService, sans-serif, Normal';fill:#ffffff"
       id="path32" />
    <path
       d="m 2506.658,345.71075 h -45.3125 l -74.4141,-159.17968 -21.4844,-51.17188 v 128.71094 81.64062 h -32.4219 V 90.437317 h 44.7266 l 70.8984,150.781253 25.586,58.39843 V 162.89825 90.437317 h 32.4219 z"
       style="font-weight:normal;-inkscape-font-specification:'Consolas, Consolas_MSFontService, sans-serif, Normal';fill:#ffffff"
       id="path34" />
  </g>
  <g
     id="text1350"
     style="font-size:40px;line-height:1.25" />
</svg>
