<?xml version="1.0" encoding="UTF-8" standalone="no"?>
<svg
   height="460"
   width="2500"
   overflow="hidden"
   version="1.1"
   id="svg22"
   sodipodi:docname="logo_text_subtext_white.svg"
   inkscape:version="1.1.2 (0a00cf5339, 2022-02-04, custom)"
   xmlns:inkscape="http://www.inkscape.org/namespaces/inkscape"
   xmlns:sodipodi="http://sodipodi.sourceforge.net/DTD/sodipodi-0.dtd"
   xmlns="http://www.w3.org/2000/svg"
   xmlns:svg="http://www.w3.org/2000/svg">
  <defs
     id="defs26" />
  <sodipodi:namedview
     id="namedview24"
     pagecolor="#ffffff"
     bordercolor="#666666"
     borderopacity="1.0"
     inkscape:pageshadow="2"
     inkscape:pageopacity="0"
     inkscape:pagecheckerboard="0"
     showgrid="false"
     width="2500px"
     inkscape:zoom="0.43967391"
     inkscape:cx="1877.5278"
     inkscape:cy="136.46477"
     inkscape:window-width="1920"
     inkscape:window-height="1017"
     inkscape:window-x="-8"
     inkscape:window-y="-8"
     inkscape:window-maximized="1"
     inkscape:current-layer="svg22" />
  <clipPath
     id="a">
    <path
       d="M 0,0 H 720 V 720 H 0 Z"
       id="path9" />
  </clipPath>
  <g
     clip-path="url(#a)"
     transform="translate(-120.28846,-129.80769)"
     id="g20">
    <path
       d="M 0,0 H 720 V 720 H 0 Z"
       fill="none"
       id="path12" />
    <g
       fill="#ff0000"
       font-family="Consolas, Consolas_MSFontService, sans-serif"
       font-weight="700"
       id="g18">
      <g
         aria-label="{"
         transform="rotate(-90,444.224,-69.224)"
         id="text14"
         style="font-size:551px">
        <path
           d="m 221.96045,106.81006 q -55.6919,0 -83.13428,-26.904298 Q 111.38379,53.270508 111.38379,-4.8427734 V -73.179687 q 0,-27.711423 -12.375978,-41.701663 -12.375976,-13.99023 -41.163574,-13.99023 H 40.894531 v -50.84912 h 16.949707 q 14.528321,0 24.751953,-2.95948 10.223633,-3.22851 16.680664,-9.68554 6.457035,-6.45703 9.147465,-16.41162 2.95947,-10.22364 2.95947,-24.21387 v -47.35156 q 0,-27.71143 6.18799,-48.69678 6.45703,-20.98535 19.90918,-34.97559 13.45215,-13.99023 34.16845,-20.98535 20.98536,-7.26416 50.31104,-7.26416 h 22.59961 v 50.58008 h -16.94971 q -12.91406,0 -23.40674,3.22852 -10.22363,2.95947 -17.75683,9.95459 -7.53321,6.99511 -11.56885,18.56396 -4.03564,11.2998 -4.03564,28.24951 v 47.08252 q 0,20.17822 -3.49756,34.4375 -3.22852,14.25928 -10.22364,23.94483 -6.99511,9.4165 -17.75683,14.79736 -10.76172,5.11182 -25.29004,7.26416 28.7876,3.22851 42.77783,22.59961 13.99024,19.10205 13.99024,58.920408 v 68.3369145 q 0,17.4877925 4.03564,29.0566405 4.03564,11.568848 11.56885,18.563965 7.5332,6.995117 17.75683,9.95459 10.49268,2.959472 23.40674,2.959472 h 16.94971 v 50.58008 z"
           id="path108" />
      </g>
      <g
         aria-label="\/"
         transform="translate(185.958,554)"
         id="text16"
         style="font-size:319px">
        <path
           d="M 55.451172,-220.09131 164.32861,33.48877 H 127.25732 L 18.535645,-220.09131 Z"
           id="path111" />
        <path
           d="m 223.51807,33.48877 h -36.91553 l 108.72168,-253.58008 h 37.07129 z"
           id="path113" />
      </g>
    </g>
  </g>
  <g
     aria-label="BITSADMIN"
     id="text4190"
     style="font-weight:bold;font-size:400px;line-height:1.25;font-family:'Courier New';-inkscape-font-specification:'Courier New, Bold';fill:#ffffff">
    <path
       d="M 561.95679,277.47836 V 22.204926 h 82.42187 q 43.55469,0 65.23438,15.234375 21.875,15.234375 21.875,46.09375 0,9.570312 -2.34375,18.749999 -2.14844,8.98438 -6.83594,16.60156 -4.6875,7.61719 -11.71875,13.47657 -7.03125,5.85937 -16.60156,9.17968 9.57031,1.5625 18.16406,6.25 8.78906,4.49219 15.23437,11.91407 6.64063,7.22656 10.35157,17.1875 3.90625,9.96093 3.90625,22.26562 0,39.0625 -26.17188,58.78906 -26.17187,19.53125 -75.58594,19.53125 z M 681.48804,91.931488 q 0,-7.226562 -2.34375,-13.085937 -2.34375,-5.859375 -7.61719,-9.960938 -5.07813,-4.101562 -13.28125,-6.25 -8.00781,-2.34375 -19.53125,-2.34375 h -29.10156 v 67.578127 h 29.10156 q 11.71875,0 19.72656,-2.73438 8.20313,-2.92968 13.28125,-7.8125 5.27344,-5.07812 7.42188,-11.52343 2.34375,-6.445317 2.34375,-13.867192 z M 643.20679,238.22055 q 11.52343,0 20.11718,-2.92969 8.78907,-2.92968 14.64844,-8.00781 5.85938,-5.27344 8.78906,-12.30469 3.125,-7.03125 3.125,-15.03906 0,-16.60156 -12.5,-25.97656 -12.30468,-9.375 -37.89062,-9.375 h -29.88281 v 73.63281 z"
       style="font-family:Consolas, Consolas_MSFontService, sans-serif;-inkscape-font-specification:'Consolas, Consolas_MSFontService, sans-serif, Bold'"
       id="path89" />
    <path
       d="M 785.98022,61.462738 V 22.204926 h 161.32813 v 39.257812 h -56.25 V 237.82993 h 56.25 v 39.64843 H 785.98022 v -39.64843 h 56.25 V 61.462738 Z"
       style="font-family:Consolas, Consolas_MSFontService, sans-serif;-inkscape-font-specification:'Consolas, Consolas_MSFontService, sans-serif, Bold'"
       id="path91" />
    <path
       d="M 1111.1755,62.243988 V 277.47836 h -49.2187 V 62.243988 H 992.03491 V 22.204926 h 189.06249 v 40.039062 z"
       style="font-family:Consolas, Consolas_MSFontService, sans-serif;-inkscape-font-specification:'Consolas, Consolas_MSFontService, sans-serif, Bold'"
       id="path93" />
    <path
       d="m 1395.7458,200.32993 q 0,20.89843 -7.8125,36.32812 -7.6171,15.42969 -21.4843,25.58594 -13.8672,9.96094 -33.0078,14.84375 -19.1407,4.88281 -41.7969,4.88281 -20.1172,0 -38.8672,-2.34375 -18.75,-2.34375 -37.1094,-7.8125 v -47.46094 q 8.9844,3.125 18.75,5.85938 9.7656,2.73437 19.5313,4.88281 9.9609,1.95313 19.7265,3.125 9.7657,1.17188 18.9453,1.17188 13.6719,0 23.2422,-2.34375 9.5703,-2.34375 15.625,-6.44532 6.0547,-4.10156 8.7891,-9.76562 2.7344,-5.66406 2.7344,-12.5 0,-9.375 -5.4688,-15.625 -5.2734,-6.44531 -14.0625,-11.32813 -8.789,-4.88281 -20.1172,-8.78906 -11.1328,-3.90625 -22.8515,-8.39844 -11.5235,-4.49218 -22.8516,-10.15625 -11.1328,-5.66406 -19.9219,-14.0625 -8.789,-8.39843 -14.2578,-19.92187 -5.2734,-11.71875 -5.2734,-28.125002 0,-15.039062 5.4687,-28.515625 5.4688,-13.476562 17.1875,-23.4375 11.7188,-10.15625 30.0782,-16.015625 18.3593,-6.054687 44.3359,-6.054687 7.6172,0 15.8203,0.78125 8.3984,0.585937 16.4063,1.757812 8.2031,0.976563 15.625,2.539063 7.6171,1.367187 13.8671,2.929687 v 43.945313 q -6.25,-2.34375 -13.6718,-4.296875 -7.4219,-1.953125 -15.4297,-3.320313 -7.8125,-1.5625 -15.8203,-2.34375 -8.0078,-0.78125 -15.2344,-0.78125 -12.6953,0 -21.4844,2.148438 -8.789,1.953125 -14.4531,5.664062 -5.6641,3.515625 -8.2031,8.789063 -2.5391,5.273437 -2.5391,11.71875 0,8.007812 5.2734,13.867189 5.4688,5.66406 14.2579,10.35156 8.9843,4.49219 20.1171,8.59375 11.3282,3.90625 23.0469,8.59375 11.9141,4.49219 23.0469,10.35156 11.3281,5.85938 20.1172,14.25782 8.9844,8.39843 14.2578,19.92187 5.4687,11.32813 5.4687,26.95313 z"
       style="font-family:Consolas, Consolas_MSFontService, sans-serif;-inkscape-font-specification:'Consolas, Consolas_MSFontService, sans-serif, Bold'"
       id="path95" />
    <path
       d="m 1634.4177,277.47836 h -37.8906 l -17.7734,-55.66406 h -106.25 l -17.9688,55.66406 h -36.1328 l 84.7656,-255.273434 h 47.6563 z m -65.625,-86.71875 -43.164,-136.523434 -43.1641,136.523434 z"
       style="font-weight:normal;font-family:Consolas, Consolas_MSFontService, sans-serif;-inkscape-font-specification:'Consolas, Consolas_MSFontService, sans-serif, Normal'"
       id="path97" />
    <path
       d="m 1842.0349,147.00961 q 0,18.35938 -2.9297,35.15625 -2.7344,16.79688 -8.9844,31.25 -6.25,14.45313 -16.2109,26.36719 -9.9609,11.71875 -24.4141,20.11719 -14.4531,8.39844 -33.5937,13.08594 -19.1406,4.49218 -43.5547,4.49218 h -54.6875 V 22.204926 h 65.8203 q 59.7656,0 89.0625,30.859375 29.4922,30.664062 29.4922,93.945309 z m -36.5234,2.53907 q 0,-27.14844 -5.0782,-45.89844 -5.0781,-18.750002 -15.4296,-30.273439 -10.3516,-11.523438 -25.9766,-16.601563 -15.625,-5.273437 -36.7188,-5.273437 h -29.8828 V 247.40024 h 25.9766 q 87.1094,0 87.1094,-97.85156 z"
       style="font-weight:normal;font-family:Consolas, Consolas_MSFontService, sans-serif;-inkscape-font-specification:'Consolas, Consolas_MSFontService, sans-serif, Normal'"
       id="path99" />
    <path
       d="m 2066.6443,277.47836 h -33.9844 l -5.0781,-159.17968 -2.1485,-61.132817 -11.914,35.546875 -37.6953,101.562502 h -24.0235 l -35.9375,-97.656252 -11.914,-39.453125 -0.7813,63.867187 -4.4922,156.44531 h -32.8125 l 12.5,-255.273434 h 41.211 l 34.375,96.093754 11.1328,32.42187 10.7422,-32.42187 36.1328,-96.093754 h 42.3828 z"
       style="font-weight:normal;font-family:Consolas, Consolas_MSFontService, sans-serif;-inkscape-font-specification:'Consolas, Consolas_MSFontService, sans-serif, Normal'"
       id="path101" />
    <path
       d="m 2168.5974,51.501801 h -58.7891 V 22.204926 h 152.7344 v 29.296875 h -58.789 V 247.79086 h 58.789 v 29.6875 h -152.7344 v -29.6875 h 58.7891 z"
       style="font-weight:normal;font-family:Consolas, Consolas_MSFontService, sans-serif;-inkscape-font-specification:'Consolas, Consolas_MSFontService, sans-serif, Normal'"
       id="path103" />
    <path
       d="m 2493.0115,277.47836 h -45.3125 l -74.4141,-159.17968 -21.4844,-51.171879 v 128.710939 81.64062 h -32.4218 V 22.204926 h 44.7265 l 70.8985,150.781254 25.5859,58.39843 V 94.665863 22.204926 h 32.4219 z"
       style="font-weight:normal;font-family:Consolas, Consolas_MSFontService, sans-serif;-inkscape-font-specification:'Consolas, Consolas_MSFontService, sans-serif, Normal'"
       id="path105" />
  </g>
  <g
     aria-label="
Empowering Businesses in a Digital World"
     id="text105452"
     style="font-size:40px;line-height:1.25;fill:#ffffff">
    <path
       d="m 777.69263,425.06382 h -35.76564 v -54.28648 h 35.76564 v 6.41667 h -28.54689 v 14.87501 h 28.54689 v 6.41667 h -28.54689 v 20.16146 h 28.54689 z"
       id="path18" />
    <path
       d="m 848.02079,425.06382 h -6.85417 v -23.18751 q 0,-2.625 -0.25521,-5.06771 -0.21875,-2.44271 -0.98438,-3.90104 -0.83854,-1.56771 -2.40625,-2.36979 -1.56771,-0.80209 -4.52083,-0.80209 -2.88021,0 -5.76042,1.45834 -2.88021,1.42187 -5.76042,3.64583 0.10937,0.83854 0.18229,1.96875 0.0729,1.09375 0.0729,2.1875 v 26.06772 h -6.85417 v -23.18751 q 0,-2.69792 -0.25521,-5.10417 -0.21875,-2.44271 -0.98438,-3.90104 -0.83854,-1.56771 -2.40625,-2.33333 -1.56771,-0.80209 -4.52083,-0.80209 -2.8073,0 -5.65105,1.38542 -2.80729,1.38542 -5.61458,3.53646 v 30.40626 h -6.85417 v -40.72397 h 6.85417 v 4.52083 q 3.20833,-2.66146 6.38021,-4.15625 3.20833,-1.49479 6.81771,-1.49479 4.15625,0 7.03646,1.75 2.91667,1.75 4.33854,4.84896 4.15626,-3.5 7.58334,-5.03125 3.42709,-1.56771 7.32813,-1.56771 6.70834,0 9.88021,4.08333 3.20834,4.04688 3.20834,11.33855 z"
       style="font-size:74.6667px;-inkscape-font-specification:'sans-serif, Normal'"
       id="path20" />
    <path
       d="m 897.05728,404.20965 q 0,4.95833 -1.42188,9.07813 -1.42187,4.08333 -4.01042,6.92708 -2.40625,2.69792 -5.6875,4.19271 -3.24479,1.45834 -6.89063,1.45834 -3.17188,0 -5.76042,-0.69271 -2.55208,-0.69271 -5.21354,-2.15104 v 17.0625 h -6.85417 v -55.74481 h 6.85417 v 4.26562 q 2.73437,-2.29687 6.125,-3.82812 3.42709,-1.56771 7.29167,-1.56771 7.36459,0 11.44792,5.57812 4.1198,5.54167 4.1198,15.42189 z m -7.07292,0.18229 q 0,-7.36459 -2.51563,-11.01042 -2.51563,-3.64584 -7.72917,-3.64584 -2.95313,0 -5.94271,1.27604 -2.98959,1.27605 -5.72396,3.35417 v 23.07814 q 2.91667,1.3125 4.99479,1.78646 2.11459,0.47396 4.77605,0.47396 5.72396,0 8.93229,-3.86459 3.20834,-3.86458 3.20834,-11.44792 z"
       style="font-size:74.6667px;-inkscape-font-specification:'sans-serif, Normal'"
       id="path22" />
    <path
       d="m 942.44793,404.72006 q 0,9.95313 -5.10417,15.71355 -5.10417,5.76042 -13.67188,5.76042 -8.64063,0 -13.7448,-5.76042 -5.06771,-5.76042 -5.06771,-15.71355 0,-9.95313 5.06771,-15.71355 5.10417,-5.79687 13.7448,-5.79687 8.56771,0 13.67188,5.79687 5.10417,5.76042 5.10417,15.71355 z m -7.07292,0 q 0,-7.91146 -3.09896,-11.73958 -3.09896,-3.86459 -8.60417,-3.86459 -5.57813,0 -8.67709,3.86459 -3.0625,3.82812 -3.0625,11.73958 0,7.65626 3.09896,11.63022 3.09896,3.9375 8.64063,3.9375 5.46875,0 8.56771,-3.90104 3.13542,-3.93751 3.13542,-11.66668 z"
       style="font-size:74.6667px;-inkscape-font-specification:'sans-serif, Normal'"
       id="path24" />
    <path
       d="m 1004.2813,384.33985 -10.6094,40.72397 h -6.34376 l -10.46354,-31.39064 -10.39063,31.39064 h -6.3073 l -10.71875,-40.72397 h 7.14583 l 7.47397,31.53647 10.17188,-31.53647 h 5.65104 l 10.42709,31.53647 7.07292,-31.53647 z"
       style="font-size:74.6667px;-inkscape-font-specification:'sans-serif, Normal'"
       id="path26" />
    <path
       d="m 1048.25,405.41277 h -30.0052 q 0,3.75521 1.1302,6.56251 1.1302,2.77083 3.099,4.55729 1.8958,1.75 4.4844,2.625 2.625,0.875 5.7604,0.875 4.1562,0 8.3489,-1.64062 4.2292,-1.67709 6.0157,-3.28126 h 0.3646 v 7.47397 q -3.4636,1.45833 -7.073,2.44271 -3.6093,0.98437 -7.5833,0.98437 -10.1354,0 -15.8229,-5.46875 -5.6875,-5.50521 -5.6875,-15.60418 0,-9.98958 5.4323,-15.85938 5.4687,-5.86979 14.3646,-5.86979 8.2395,0 12.6875,4.8125 4.4843,4.8125 4.4843,13.67188 z m -6.6718,-5.25 q -0.036,-5.39584 -2.7344,-8.34896 -2.6615,-2.95313 -8.1302,-2.95313 -5.5052,0 -8.7865,3.24479 -3.2448,3.2448 -3.6823,8.0573 z"
       style="font-size:74.6667px;-inkscape-font-specification:'sans-serif, Normal'"
       id="path28" />
    <path
       d="m 1084.0521,391.81381 h -0.3645 q -1.5313,-0.36459 -2.9896,-0.51042 -1.4219,-0.18229 -3.3907,-0.18229 -3.1718,0 -6.125,1.42187 -2.9531,1.38542 -5.6875,3.60938 v 28.91147 h -6.8541 v -40.72397 h 6.8541 v 6.01562 q 4.0834,-3.28125 7.1823,-4.63021 3.1355,-1.38541 6.3802,-1.38541 1.7865,0 2.5886,0.10937 0.8021,0.0729 2.4062,0.32813 z"
       style="font-size:74.6667px;-inkscape-font-specification:'sans-serif, Normal'"
       id="path30" />
    <path
       d="m 1097.8699,377.52213 h -7.7292 v -7.10937 h 7.7292 z m -0.4375,47.54169 h -6.8542 v -40.72397 h 6.8542 z"
       style="font-size:74.6667px;-inkscape-font-specification:'sans-serif, Normal'"
       id="path32" />
    <path
       d="m 1145.047,425.06382 h -6.8542 v -23.18751 q 0,-2.80729 -0.3281,-5.25 -0.3281,-2.47917 -1.2031,-3.86458 -0.9115,-1.53126 -2.625,-2.26042 -1.7136,-0.76563 -4.448,-0.76563 -2.8072,0 -5.8697,1.38542 -3.0626,1.38542 -5.8698,3.53646 v 30.40626 h -6.8542 v -40.72397 h 6.8542 v 4.52083 q 3.2083,-2.66146 6.6354,-4.15625 3.4271,-1.49479 7.0364,-1.49479 6.599,0 10.0625,3.97396 3.4636,3.97396 3.4636,11.44792 z"
       style="font-size:74.6667px;-inkscape-font-specification:'sans-serif, Normal'"
       id="path34" />
    <path
       d="m 1191.2762,420.43361 q 0,10.35417 -4.7032,15.20314 -4.7031,4.84896 -14.4739,4.84896 -3.2448,0 -6.3438,-0.47396 -3.0625,-0.4375 -6.0521,-1.27604 v -7.00001 h 0.3646 q 1.6771,0.65625 5.3229,1.60417 3.6459,0.98437 7.2917,0.98437 3.5,0 5.7969,-0.83854 2.2968,-0.83854 3.5729,-2.33333 1.276,-1.42188 1.8229,-3.42709 0.5469,-2.00521 0.5469,-4.48437 v -3.71876 q -3.099,2.47917 -5.9427,3.71876 -2.8073,1.20312 -7.1823,1.20312 -7.2917,0 -11.5938,-5.25 -4.2656,-5.28646 -4.2656,-14.87501 0,-5.25 1.4583,-9.04167 1.4948,-3.82813 4.0469,-6.59896 2.3698,-2.58854 5.7604,-4.01042 3.3907,-1.45833 6.7448,-1.45833 3.5365,0 5.9063,0.72916 2.4062,0.69271 5.0677,2.15105 l 0.4375,-1.75 h 6.4167 z m -6.8542,-6.5625 v -22.20314 q -2.7344,-1.23958 -5.1042,-1.75 -2.3333,-0.54687 -4.6667,-0.54687 -5.651,0 -8.8958,3.79167 -3.2448,3.79167 -3.2448,11.01042 0,6.85417 2.4063,10.39063 2.4062,3.53646 7.9843,3.53646 2.9896,0 5.9792,-1.13021 3.0261,-1.16667 5.5417,-3.09896 z"
       style="font-size:74.6667px;-inkscape-font-specification:'sans-serif, Normal'"
       id="path36" />
    <path
       d="m 1272.5054,408.3659 q 0,4.04688 -1.5313,7.14584 -1.5312,3.09896 -4.1198,5.10417 -3.0625,2.40625 -6.7448,3.42708 -3.6458,1.02083 -9.2969,1.02083 h -19.25 v -54.28648 h 16.0782 q 5.9427,0 8.8958,0.4375 2.9531,0.4375 5.6511,1.82292 2.9895,1.56771 4.3385,4.04687 1.349,2.44271 1.349,5.8698 0,3.86458 -1.9688,6.59896 -1.9687,2.69792 -5.25,4.33854 v 0.29167 q 5.5052,1.13021 8.6771,4.84896 3.1719,3.68229 3.1719,9.33334 z m -12.1407,-24.46355 q 0,-1.96876 -0.6562,-3.31771 -0.6563,-1.34896 -2.1146,-2.18751 -1.7135,-0.98437 -4.1563,-1.20312 -2.4427,-0.25521 -6.052,-0.25521 h -8.6042 v 15.67709 h 9.3333 q 3.3907,0 5.3959,-0.32812 2.0052,-0.36459 3.7187,-1.45834 1.7136,-1.09375 2.4063,-2.80729 0.7291,-1.75 0.7291,-4.11979 z m 4.6302,24.75522 q 0,-3.28126 -0.9843,-5.21355 -0.9844,-1.93229 -3.573,-3.28125 -1.75,-0.91146 -4.2656,-1.16667 -2.4791,-0.29166 -6.0521,-0.29166 h -11.3385 v 20.19792 h 9.5521 q 4.7396,0 7.7656,-0.47396 3.026,-0.51041 4.9583,-1.82291 2.0417,-1.42188 2.9896,-3.2448 0.9479,-1.82291 0.9479,-4.70312 z"
       style="font-size:74.6667px;-inkscape-font-specification:'sans-serif, Normal'"
       id="path38" />
    <path
       d="m 1315.9637,425.06382 h -6.8541 v -4.52083 q -3.4636,2.73437 -6.6355,4.19271 -3.1718,1.45833 -7,1.45833 -6.4166,0 -9.9896,-3.90104 -3.5729,-3.9375 -3.5729,-11.52084 v -26.4323 h 6.8542 v 23.18751 q 0,3.09896 0.2917,5.32292 0.2916,2.1875 1.2395,3.75521 0.9844,1.60416 2.5521,2.33333 1.5677,0.72917 4.5573,0.72917 2.6615,0 5.7969,-1.38542 3.1719,-1.38542 5.9063,-3.53646 v -30.40626 h 6.8541 z"
       style="font-size:74.6667px;-inkscape-font-specification:'sans-serif, Normal'"
       id="path40" />
    <path
       d="m 1358.5471,413.32423 q 0,5.57813 -4.6303,9.15105 -4.5937,3.57292 -12.5781,3.57292 -4.5208,0 -8.3125,-1.05729 -3.7552,-1.09375 -6.3073,-2.3698 v -7.69271 h 0.3646 q 3.2448,2.44271 7.2188,3.90105 3.9739,1.42187 7.6197,1.42187 4.5209,0 7.073,-1.45833 2.5521,-1.45834 2.5521,-4.59375 0,-2.40626 -1.3855,-3.64584 -1.3854,-1.23958 -5.3229,-2.11458 -1.4583,-0.32813 -3.8281,-0.76563 -2.3333,-0.4375 -4.2656,-0.94792 -5.3594,-1.42187 -7.6198,-4.15625 -2.224,-2.77083 -2.224,-6.78125 0,-2.51563 1.0208,-4.73959 1.0573,-2.22396 3.1719,-3.97396 2.0417,-1.71354 5.1771,-2.69792 3.1719,-1.02083 7.0729,-1.02083 3.6459,0 7.3646,0.91146 3.7552,0.875 6.2344,2.15104 v 7.32813 h -0.3646 q -2.625,-1.93229 -6.3802,-3.24479 -3.7552,-1.34896 -7.3646,-1.34896 -3.7552,0 -6.3437,1.45833 -2.5886,1.42188 -2.5886,4.26563 0,2.51563 1.5677,3.79167 1.5313,1.27604 4.9584,2.07812 1.8958,0.4375 4.2291,0.875 2.3698,0.4375 3.9375,0.80209 4.7761,1.09375 7.3646,3.75521 2.5886,2.69792 2.5886,7.14583 z"
       style="font-size:74.6667px;-inkscape-font-specification:'sans-serif, Normal'"
       id="path42" />
    <path
       d="m 1375.7189,377.52213 h -7.7291 v -7.10937 h 7.7291 z m -0.4375,47.54169 h -6.8541 v -40.72397 h 6.8541 z"
       style="font-size:74.6667px;-inkscape-font-specification:'sans-serif, Normal'"
       id="path44" />
    <path
       d="m 1422.8961,425.06382 h -6.8542 v -23.18751 q 0,-2.80729 -0.3281,-5.25 -0.3281,-2.47917 -1.2031,-3.86458 -0.9115,-1.53126 -2.625,-2.26042 -1.7136,-0.76563 -4.448,-0.76563 -2.8073,0 -5.8698,1.38542 -3.0625,1.38542 -5.8698,3.53646 v 30.40626 h -6.8541 v -40.72397 h 6.8541 v 4.52083 q 3.2084,-2.66146 6.6355,-4.15625 3.4271,-1.49479 7.0364,-1.49479 6.599,0 10.0625,3.97396 3.4636,3.97396 3.4636,11.44792 z"
       style="font-size:74.6667px;-inkscape-font-specification:'sans-serif, Normal'"
       id="path46" />
    <path
       d="m 1470.1825,405.41277 h -30.0052 q 0,3.75521 1.1302,6.56251 1.1302,2.77083 3.099,4.55729 1.8958,1.75 4.4844,2.625 2.625,0.875 5.7604,0.875 4.1562,0 8.3489,-1.64062 4.2292,-1.67709 6.0157,-3.28126 h 0.3646 v 7.47397 q -3.4636,1.45833 -7.073,2.44271 -3.6093,0.98437 -7.5833,0.98437 -10.1354,0 -15.8229,-5.46875 -5.6875,-5.50521 -5.6875,-15.60418 0,-9.98958 5.4323,-15.85938 5.4687,-5.86979 14.3646,-5.86979 8.2395,0 12.6875,4.8125 4.4843,4.8125 4.4843,13.67188 z m -6.6718,-5.25 q -0.036,-5.39584 -2.7344,-8.34896 -2.6615,-2.95313 -8.1302,-2.95313 -5.5052,0 -8.7865,3.24479 -3.2448,3.2448 -3.6823,8.0573 z"
       style="font-size:74.6667px;-inkscape-font-specification:'sans-serif, Normal'"
       id="path48" />
    <path
       d="m 1509.6669,413.32423 q 0,5.57813 -4.6302,9.15105 -4.5937,3.57292 -12.5781,3.57292 -4.5208,0 -8.3125,-1.05729 -3.7552,-1.09375 -6.3073,-2.3698 v -7.69271 h 0.3646 q 3.2448,2.44271 7.2187,3.90105 3.974,1.42187 7.6198,1.42187 4.5209,0 7.0729,-1.45833 2.5521,-1.45834 2.5521,-4.59375 0,-2.40626 -1.3854,-3.64584 -1.3854,-1.23958 -5.3229,-2.11458 -1.4583,-0.32813 -3.8281,-0.76563 -2.3334,-0.4375 -4.2657,-0.94792 -5.3593,-1.42187 -7.6198,-4.15625 -2.2239,-2.77083 -2.2239,-6.78125 0,-2.51563 1.0208,-4.73959 1.0573,-2.22396 3.1719,-3.97396 2.0417,-1.71354 5.1771,-2.69792 3.1719,-1.02083 7.0729,-1.02083 3.6458,0 7.3646,0.91146 3.7552,0.875 6.2344,2.15104 v 7.32813 h -0.3646 q -2.625,-1.93229 -6.3802,-3.24479 -3.7552,-1.34896 -7.3646,-1.34896 -3.7552,0 -6.3438,1.45833 -2.5885,1.42188 -2.5885,4.26563 0,2.51563 1.5677,3.79167 1.5312,1.27604 4.9583,2.07812 1.8959,0.4375 4.2292,0.875 2.3698,0.4375 3.9375,0.80209 4.776,1.09375 7.3646,3.75521 2.5885,2.69792 2.5885,7.14583 z"
       style="font-size:74.6667px;-inkscape-font-specification:'sans-serif, Normal'"
       id="path50" />
    <path
       d="m 1548.568,413.32423 q 0,5.57813 -4.6302,9.15105 -4.5938,3.57292 -12.5782,3.57292 -4.5208,0 -8.3125,-1.05729 -3.7552,-1.09375 -6.3073,-2.3698 v -7.69271 h 0.3646 q 3.2448,2.44271 7.2188,3.90105 3.9739,1.42187 7.6198,1.42187 4.5208,0 7.0729,-1.45833 2.5521,-1.45834 2.5521,-4.59375 0,-2.40626 -1.3854,-3.64584 -1.3854,-1.23958 -5.3229,-2.11458 -1.4584,-0.32813 -3.8282,-0.76563 -2.3333,-0.4375 -4.2656,-0.94792 -5.3594,-1.42187 -7.6198,-4.15625 -2.224,-2.77083 -2.224,-6.78125 0,-2.51563 1.0209,-4.73959 1.0573,-2.22396 3.1719,-3.97396 2.0416,-1.71354 5.177,-2.69792 3.1719,-1.02083 7.073,-1.02083 3.6458,0 7.3645,0.91146 3.7553,0.875 6.2344,2.15104 v 7.32813 h -0.3646 q -2.625,-1.93229 -6.3802,-3.24479 -3.7552,-1.34896 -7.3646,-1.34896 -3.7552,0 -6.3437,1.45833 -2.5886,1.42188 -2.5886,4.26563 0,2.51563 1.5678,3.79167 1.5312,1.27604 4.9583,2.07812 1.8958,0.4375 4.2292,0.875 2.3698,0.4375 3.9375,0.80209 4.776,1.09375 7.3645,3.75521 2.5886,2.69792 2.5886,7.14583 z"
       style="font-size:74.6667px;-inkscape-font-specification:'sans-serif, Normal'"
       id="path52" />
    <path
       d="m 1592.4638,405.41277 h -30.0052 q 0,3.75521 1.1302,6.56251 1.1302,2.77083 3.099,4.55729 1.8958,1.75 4.4844,2.625 2.625,0.875 5.7604,0.875 4.1562,0 8.349,-1.64062 4.2291,-1.67709 6.0156,-3.28126 h 0.3646 v 7.47397 q -3.4636,1.45833 -7.073,2.44271 -3.6093,0.98437 -7.5833,0.98437 -10.1354,0 -15.8229,-5.46875 -5.6875,-5.50521 -5.6875,-15.60418 0,-9.98958 5.4323,-15.85938 5.4687,-5.86979 14.3646,-5.86979 8.2396,0 12.6875,4.8125 4.4843,4.8125 4.4843,13.67188 z m -6.6718,-5.25 q -0.036,-5.39584 -2.7344,-8.34896 -2.6615,-2.95313 -8.1302,-2.95313 -5.5052,0 -8.7865,3.24479 -3.2448,3.2448 -3.6823,8.0573 z"
       style="font-size:74.6667px;-inkscape-font-specification:'sans-serif, Normal'"
       id="path54" />
    <path
       d="m 1631.9482,413.32423 q 0,5.57813 -4.6302,9.15105 -4.5937,3.57292 -12.5781,3.57292 -4.5208,0 -8.3125,-1.05729 -3.7552,-1.09375 -6.3073,-2.3698 v -7.69271 h 0.3646 q 3.2448,2.44271 7.2187,3.90105 3.974,1.42187 7.6198,1.42187 4.5209,0 7.073,-1.45833 2.552,-1.45834 2.552,-4.59375 0,-2.40626 -1.3854,-3.64584 -1.3854,-1.23958 -5.3229,-2.11458 -1.4583,-0.32813 -3.8281,-0.76563 -2.3334,-0.4375 -4.2657,-0.94792 -5.3593,-1.42187 -7.6198,-4.15625 -2.2239,-2.77083 -2.2239,-6.78125 0,-2.51563 1.0208,-4.73959 1.0573,-2.22396 3.1719,-3.97396 2.0417,-1.71354 5.1771,-2.69792 3.1719,-1.02083 7.0729,-1.02083 3.6458,0 7.3646,0.91146 3.7552,0.875 6.2344,2.15104 v 7.32813 h -0.3646 q -2.625,-1.93229 -6.3802,-3.24479 -3.7552,-1.34896 -7.3646,-1.34896 -3.7552,0 -6.3438,1.45833 -2.5885,1.42188 -2.5885,4.26563 0,2.51563 1.5677,3.79167 1.5313,1.27604 4.9583,2.07812 1.8959,0.4375 4.2292,0.875 2.3698,0.4375 3.9375,0.80209 4.7761,1.09375 7.3646,3.75521 2.5885,2.69792 2.5885,7.14583 z"
       style="font-size:74.6667px;-inkscape-font-specification:'sans-serif, Normal'"
       id="path56" />
    <path
       d="m 1675.3701,377.52213 h -7.7291 v -7.10937 h 7.7291 z m -0.4375,47.54169 h -6.8541 v -40.72397 h 6.8541 z"
       style="font-size:74.6667px;-inkscape-font-specification:'sans-serif, Normal'"
       id="path58" />
    <path
       d="m 1722.5473,425.06382 h -6.8542 v -23.18751 q 0,-2.80729 -0.3281,-5.25 -0.3282,-2.47917 -1.2032,-3.86458 -0.9114,-1.53126 -2.625,-2.26042 -1.7135,-0.76563 -4.4479,-0.76563 -2.8073,0 -5.8698,1.38542 -3.0625,1.38542 -5.8698,3.53646 v 30.40626 h -6.8541 v -40.72397 h 6.8541 v 4.52083 q 3.2084,-2.66146 6.6355,-4.15625 3.427,-1.49479 7.0364,-1.49479 6.599,0 10.0625,3.97396 3.4636,3.97396 3.4636,11.44792 z"
       style="font-size:74.6667px;-inkscape-font-specification:'sans-serif, Normal'"
       id="path60" />
    <path
       d="m 1793.6411,425.06382 h -6.8177 v -4.33854 q -0.9115,0.61979 -2.4792,1.75 -1.5313,1.09375 -2.9896,1.75 -1.7135,0.83854 -3.9375,1.38542 -2.224,0.58333 -5.2135,0.58333 -5.5053,0 -9.3334,-3.64583 -3.8281,-3.64584 -3.8281,-9.29688 0,-4.63021 1.9687,-7.47396 2.0053,-2.88021 5.6875,-4.52084 3.7188,-1.64063 8.9323,-2.22396 5.2136,-0.58333 11.1928,-0.875 v -1.05729 q 0,-2.33334 -0.8386,-3.86459 -0.8021,-1.53125 -2.3333,-2.40625 -1.4584,-0.83854 -3.5,-1.13021 -2.0417,-0.29166 -4.2656,-0.29166 -2.698,0 -6.0157,0.72916 -3.3177,0.69271 -6.8541,2.04167 h -0.3646 v -6.96354 q 2.0052,-0.54688 5.7969,-1.20313 3.7916,-0.65625 7.4739,-0.65625 4.3021,0 7.474,0.72917 3.2083,0.69271 5.5416,2.40625 2.2969,1.67708 3.5,4.33854 1.2032,2.66146 1.2032,6.59896 z m -6.8177,-10.02604 v -11.33855 q -3.1355,0.18229 -7.4011,0.54688 -4.2292,0.36458 -6.7083,1.05729 -2.9531,0.83854 -4.7761,2.625 -1.8229,1.75 -1.8229,4.84896 0,3.5 2.1146,5.28646 2.1146,1.75 6.4531,1.75 3.6094,0 6.599,-1.38542 2.9896,-1.42187 5.5417,-3.39062 z"
       style="font-size:74.6667px;-inkscape-font-specification:'sans-serif, Normal'"
       id="path62" />
    <path
       d="m 1879.5005,397.97527 q 0,7.40104 -3.2448,13.41667 -3.2084,6.01563 -8.5678,9.33334 -3.7187,2.29688 -8.3125,3.31771 -4.5573,1.02083 -12.0312,1.02083 h -13.7084 v -54.28648 h 13.5626 q 7.9479,0 12.6145,1.16667 4.7032,1.13021 7.948,3.13541 5.5416,3.46355 8.6406,9.22397 3.099,5.76042 3.099,13.67188 z m -7.5469,-0.10938 q 0,-6.38021 -2.224,-10.75521 -2.2239,-4.375 -6.6354,-6.89063 -3.2083,-1.82292 -6.8177,-2.51562 -3.6094,-0.72917 -8.6406,-0.72917 h -6.7813 v 41.89064 h 6.7813 q 5.2135,0 9.0781,-0.76562 3.901,-0.76563 7.1458,-2.84375 4.0469,-2.58855 6.0521,-6.81771 2.0417,-4.22917 2.0417,-10.57293 z"
       style="font-size:74.6667px;-inkscape-font-specification:'sans-serif, Normal'"
       id="path64" />
    <path
       d="m 1897.9848,377.52213 h -7.7292 v -7.10937 h 7.7292 z m -0.4375,47.54169 h -6.8542 v -40.72397 h 6.8542 z"
       style="font-size:74.6667px;-inkscape-font-specification:'sans-serif, Normal'"
       id="path66" />
    <path
       d="m 1944.1411,420.43361 q 0,10.35417 -4.7031,15.20314 -4.7031,4.84896 -14.474,4.84896 -3.2448,0 -6.3437,-0.47396 -3.0625,-0.4375 -6.0521,-1.27604 v -7.00001 h 0.3646 q 1.677,0.65625 5.3229,1.60417 3.6458,0.98437 7.2917,0.98437 3.5,0 5.7968,-0.83854 2.2969,-0.83854 3.5729,-2.33333 1.2761,-1.42188 1.823,-3.42709 0.5468,-2.00521 0.5468,-4.48437 v -3.71876 q -3.0989,2.47917 -5.9427,3.71876 -2.8073,1.20312 -7.1823,1.20312 -7.2916,0 -11.5937,-5.25 -4.2656,-5.28646 -4.2656,-14.87501 0,-5.25 1.4583,-9.04167 1.4948,-3.82813 4.0469,-6.59896 2.3698,-2.58854 5.7604,-4.01042 3.3906,-1.45833 6.7448,-1.45833 3.5364,0 5.9062,0.72916 2.4063,0.69271 5.0677,2.15105 l 0.4375,-1.75 h 6.4167 z m -6.8542,-6.5625 v -22.20314 q -2.7343,-1.23958 -5.1041,-1.75 -2.3334,-0.54687 -4.6667,-0.54687 -5.651,0 -8.8958,3.79167 -3.2448,3.79167 -3.2448,11.01042 0,6.85417 2.4062,10.39063 2.4063,3.53646 7.9844,3.53646 2.9896,0 5.9792,-1.13021 3.026,-1.16667 5.5416,-3.09896 z"
       style="font-size:74.6667px;-inkscape-font-specification:'sans-serif, Normal'"
       id="path68" />
    <path
       d="m 1964.9953,377.52213 h -7.7292 v -7.10937 h 7.7292 z m -0.4375,47.54169 h -6.8542 v -40.72397 h 6.8542 z"
       style="font-size:74.6667px;-inkscape-font-specification:'sans-serif, Normal'"
       id="path70" />
    <path
       d="m 1999.2662,424.69924 q -1.9323,0.51042 -4.2292,0.83854 -2.2604,0.32813 -4.0469,0.32813 -6.2343,0 -9.4791,-3.35417 -3.2448,-3.35417 -3.2448,-10.75521 v -21.65626 h -4.6302 v -5.76042 h 4.6302 v -11.70313 h 6.8541 v 11.70313 h 14.1459 v 5.76042 h -14.1459 v 18.5573 q 0,3.20833 0.1459,5.03125 0.1458,1.78646 1.0208,3.35417 0.8021,1.45833 2.1875,2.15104 1.4219,0.65625 4.3021,0.65625 1.6771,0 3.5,-0.47396 1.8229,-0.51042 2.625,-0.83854 h 0.3646 z"
       style="font-size:74.6667px;-inkscape-font-specification:'sans-serif, Normal'"
       id="path72" />
    <path
       d="m 2039.1881,425.06382 h -6.8177 v -4.33854 q -0.9115,0.61979 -2.4792,1.75 -1.5313,1.09375 -2.9896,1.75 -1.7135,0.83854 -3.9375,1.38542 -2.224,0.58333 -5.2135,0.58333 -5.5053,0 -9.3334,-3.64583 -3.8281,-3.64584 -3.8281,-9.29688 0,-4.63021 1.9687,-7.47396 2.0053,-2.88021 5.6875,-4.52084 3.7188,-1.64063 8.9323,-2.22396 5.2136,-0.58333 11.1928,-0.875 v -1.05729 q 0,-2.33334 -0.8386,-3.86459 -0.8021,-1.53125 -2.3333,-2.40625 -1.4584,-0.83854 -3.5,-1.13021 -2.0417,-0.29166 -4.2656,-0.29166 -2.698,0 -6.0157,0.72916 -3.3177,0.69271 -6.8541,2.04167 h -0.3646 v -6.96354 q 2.0052,-0.54688 5.7968,-1.20313 3.7917,-0.65625 7.474,-0.65625 4.3021,0 7.474,0.72917 3.2083,0.69271 5.5416,2.40625 2.2969,1.67708 3.5,4.33854 1.2032,2.66146 1.2032,6.59896 z m -6.8177,-10.02604 v -11.33855 q -3.1355,0.18229 -7.4011,0.54688 -4.2292,0.36458 -6.7083,1.05729 -2.9532,0.83854 -4.7761,2.625 -1.8229,1.75 -1.8229,4.84896 0,3.5 2.1146,5.28646 2.1146,1.75 6.4531,1.75 3.6094,0 6.599,-1.38542 2.9896,-1.42187 5.5417,-3.39062 z"
       style="font-size:74.6667px;-inkscape-font-specification:'sans-serif, Normal'"
       id="path74" />
    <path
       d="m 2059.3131,425.06382 h -6.8542 v -56.72919 h 6.8542 z"
       style="font-size:74.6667px;-inkscape-font-specification:'sans-serif, Normal'"
       id="path76" />
    <path
       d="m 2162.8548,370.77734 -14.1094,54.28648 h -8.1302 l -11.4115,-45.06252 -11.1562,45.06252 h -7.9479 l -14.3646,-54.28648 h 7.401 l 11.4115,45.13544 11.2291,-45.13544 h 7.3282 l 11.3385,45.57294 11.3386,-45.57294 z"
       style="font-size:74.6667px;-inkscape-font-specification:'sans-serif, Normal'"
       id="path78" />
    <path
       d="m 2204.0162,404.72006 q 0,9.95313 -5.1042,15.71355 -5.1041,5.76042 -13.6719,5.76042 -8.6406,0 -13.7448,-5.76042 -5.0677,-5.76042 -5.0677,-15.71355 0,-9.95313 5.0677,-15.71355 5.1042,-5.79687 13.7448,-5.79687 8.5678,0 13.6719,5.79687 5.1042,5.76042 5.1042,15.71355 z m -7.0729,0 q 0,-7.91146 -3.099,-11.73958 -3.0989,-3.86459 -8.6042,-3.86459 -5.5781,0 -8.677,3.86459 -3.0625,3.82812 -3.0625,11.73958 0,7.65626 3.0989,11.63022 3.099,3.9375 8.6406,3.9375 5.4688,0 8.5678,-3.90104 3.1354,-3.93751 3.1354,-11.66668 z"
       style="font-size:74.6667px;-inkscape-font-specification:'sans-serif, Normal'"
       id="path80" />
    <path
       d="m 2240.0371,391.81381 h -0.3646 q -1.5313,-0.36459 -2.9896,-0.51042 -1.4219,-0.18229 -3.3906,-0.18229 -3.1719,0 -6.125,1.42187 -2.9532,1.38542 -5.6875,3.60938 v 28.91147 h -6.8542 v -40.72397 h 6.8542 v 6.01562 q 4.0833,-3.28125 7.1823,-4.63021 3.1354,-1.38541 6.3802,-1.38541 1.7864,0 2.5885,0.10937 0.8021,0.0729 2.4063,0.32813 z"
       style="font-size:74.6667px;-inkscape-font-specification:'sans-serif, Normal'"
       id="path82" />
    <path
       d="m 2253.4173,425.06382 h -6.8542 v -56.72919 h 6.8542 z"
       style="font-size:74.6667px;-inkscape-font-specification:'sans-serif, Normal'"
       id="path84" />
    <path
       d="m 2300.0111,425.06382 h -6.8542 v -4.26562 q -2.9531,2.55208 -6.1614,3.97396 -3.2084,1.42187 -6.9636,1.42187 -7.2916,0 -11.5937,-5.61458 -4.2657,-5.61459 -4.2657,-15.56772 0,-5.17708 1.4584,-9.22396 1.4948,-4.04688 4.0104,-6.89063 2.4792,-2.77083 5.7604,-4.22917 3.3177,-1.45833 6.8542,-1.45833 3.2083,0 5.6875,0.69271 2.4792,0.65625 5.2135,2.07812 v -17.64584 h 6.8542 z m -6.8542,-10.02604 v -23.36981 q -2.7708,-1.23958 -4.9583,-1.71354 -2.1875,-0.47396 -4.776,-0.47396 -5.7605,0 -8.9688,4.01042 -3.2083,4.01042 -3.2083,11.37501 0,7.25521 2.4791,11.04688 2.4792,3.75521 7.948,3.75521 2.9166,0 5.9062,-1.27604 2.9896,-1.31251 5.5781,-3.35417 z"
       style="font-size:74.6667px;-inkscape-font-specification:'sans-serif, Normal'"
       id="path86" />
  </g>
</svg>
